<svg width="24" height="25" viewBox="0 0 24 25" fill="none" xmlns="http://www.w3.org/2000/svg">
<path d="M12 8.3335C11.3635 8.3335 10.753 8.59689 10.3029 9.06573C9.85283 9.53457 9.59998 10.1705 9.59998 10.8335C9.59998 11.4965 9.85283 12.1324 10.3029 12.6013C10.753 13.0701 11.3635 13.3335 12 13.3335C12.6365 13.3335 13.2469 13.0701 13.697 12.6013C14.1471 12.1324 14.4 11.4965 14.4 10.8335C14.4 10.1705 14.1471 9.53457 13.697 9.06573C13.2469 8.59689 12.6365 8.3335 12 8.3335V8.3335Z" fill="white"/>
<path fill-rule="evenodd" clip-rule="evenodd" d="M14.4 3.33333H12.8V0H11.2V3.33333H9.6C7.05392 3.33333 4.61212 4.3869 2.81177 6.26227C1.01143 8.13763 0 10.6812 0 13.3333C0 15.9855 1.01143 18.529 2.81177 20.4044C4.61212 22.2798 7.05392 23.3333 9.6 23.3333H14.4C14.608 23.3333 14.816 23.3267 15.0224 23.3117L21.4064 24.975C21.5403 25.0097 21.6806 25.0078 21.8136 24.9694C21.9466 24.9309 22.0678 24.8573 22.1654 24.7556C22.263 24.654 22.3337 24.5277 22.3706 24.3892C22.4075 24.2506 22.4094 24.1045 22.376 23.965L21.4528 20.1167C22.7186 18.6885 23.5573 16.907 23.8665 14.9901C24.1756 13.0732 23.9418 11.104 23.1935 9.32333C22.4452 7.54269 21.215 6.02781 19.6533 4.96398C18.0915 3.90016 16.266 3.3335 14.4 3.33333V3.33333ZM8 10.8333C8 9.72826 8.42143 8.66846 9.17157 7.88705C9.92172 7.10565 10.9391 6.66667 12 6.66667C13.0609 6.66667 14.0783 7.10565 14.8284 7.88705C15.5786 8.66846 16 9.72826 16 10.8333C16 11.9384 15.5786 12.9982 14.8284 13.7796C14.0783 14.561 13.0609 15 12 15C10.9391 15 9.92172 14.561 9.17157 13.7796C8.42143 12.9982 8 11.9384 8 10.8333ZM12 20C10.3635 20.0025 8.77539 19.4221 7.4992 18.355L8.5008 17.055C9.4592 17.855 10.6752 18.3333 12 18.3333C13.3248 18.3333 14.5408 17.855 15.4992 17.055L16.5008 18.355C15.2246 19.4221 13.6365 20.0025 12 20V20Z" fill="white"/>
</svg>
