<svg width="25" height="24" viewBox="0 0 25 24" fill="none" xmlns="http://www.w3.org/2000/svg">
<path d="M12.5 8C11.837 8 11.2011 8.25286 10.7322 8.70294C10.2634 9.15303 10 9.76348 10 10.4C10 11.0365 10.2634 11.647 10.7322 12.0971C11.2011 12.5471 11.837 12.8 12.5 12.8C13.163 12.8 13.7989 12.5471 14.2678 12.0971C14.7366 11.647 15 11.0365 15 10.4C15 9.76348 14.7366 9.15303 14.2678 8.70294C13.7989 8.25286 13.163 8 12.5 8V8Z" fill="#494949"/>
<path fill-rule="evenodd" clip-rule="evenodd" d="M15 3.2H13.3333V0H11.6667V3.2H10C7.34784 3.2 4.8043 4.21143 2.92893 6.01177C1.05357 7.81212 0 10.2539 0 12.8C0 15.3461 1.05357 17.7879 2.92893 19.5882C4.8043 21.3886 7.34784 22.4 10 22.4H15C15.2167 22.4 15.4333 22.3936 15.6483 22.3792L22.2983 23.976C22.4378 24.0094 22.584 24.0075 22.7225 23.9706C22.8611 23.9337 22.9873 23.863 23.089 23.7654C23.1906 23.6678 23.2642 23.5466 23.3027 23.4136C23.3411 23.2806 23.3431 23.1403 23.3083 23.0064L22.3467 19.312C23.6652 17.9409 24.5389 16.2307 24.8609 14.3905C25.183 12.5502 24.9394 10.6598 24.1599 8.9504C23.3805 7.24098 22.099 5.7867 20.4721 4.76543C18.8453 3.74415 16.9438 3.20016 15 3.2V3.2ZM8.33333 10.4C8.33333 9.33913 8.77232 8.32172 9.55372 7.57157C10.3351 6.82143 11.3949 6.4 12.5 6.4C13.6051 6.4 14.6649 6.82143 15.4463 7.57157C16.2277 8.32172 16.6667 9.33913 16.6667 10.4C16.6667 11.4609 16.2277 12.4783 15.4463 13.2284C14.6649 13.9786 13.6051 14.4 12.5 14.4C11.3949 14.4 10.3351 13.9786 9.55372 13.2284C8.77232 12.4783 8.33333 11.4609 8.33333 10.4ZM12.5 19.2C10.7953 19.2024 9.14103 18.6452 7.81167 17.6208L8.855 16.3728C9.85333 17.1408 11.12 17.6 12.5 17.6C13.88 17.6 15.1467 17.1408 16.145 16.3728L17.1883 17.6208C15.859 18.6452 14.2047 19.2024 12.5 19.2V19.2Z" fill="#494949"/>
</svg>
