<svg width="24" height="25" viewBox="0 0 24 25" fill="none" xmlns="http://www.w3.org/2000/svg">
<path d="M2.99998 10.1428C2.9975 10.3011 3.04129 10.4566 3.12554 10.5884C3.20979 10.7203 3.33052 10.8223 3.47173 10.8811L10.6725 13.8818L13.5532 21.3834C13.6089 21.5285 13.705 21.6529 13.8292 21.7405C13.9534 21.8281 14.1 21.8749 14.25 21.8748H14.262C14.4139 21.8723 14.5615 21.8218 14.6852 21.73C14.809 21.6382 14.903 21.5095 14.955 21.3607L20.955 4.17324C21.0041 4.03342 21.0138 3.88189 20.983 3.73649C20.9523 3.5911 20.8822 3.4579 20.7812 3.35257C20.6802 3.24725 20.5523 3.17419 20.4128 3.14201C20.2732 3.10982 20.1277 3.11985 19.9935 3.1709L3.49348 9.4209C3.35065 9.47514 3.227 9.57327 3.13888 9.70231C3.05076 9.83135 3.00232 9.98522 2.99998 10.1436V10.1428Z" fill="#F8F8F8"/>
</svg>
